HIERARCHY
ROOT Hips
{
	OFFSET 0.00000 0.00000 0.00000
	CHANNELS 6 Xposition Yposition Zposition Yrotation Zrotation Xrotation 
	JOINT Lumbar
	{
		OFFSET 0 0 0
		CHANNELS 3 Zrotation Xrotation Yrotation
		JOINT Neck
		{
			OFFSET 0.00 0.2701 0.00
			CHANNELS 3 Zrotation Xrotation Yrotation
			End Site
			{
				OFFSET 0.00 0.1379 0.00
			}
		}
		JOINT RightShoulder
		{
			OFFSET 0.0119 0.2289 0.1181
			CHANNELS 3 Zrotation Xrotation Yrotation
			JOINT RightElbow
			{
				OFFSET 0.00 -0.1475 0.00
				CHANNELS 2 Zrotation Yrotation
				JOINT RightWrist
				{
					OFFSET 0.00 -0.1605 0.00
					CHANNELS 2 Zrotation Xrotation
					End Site
					{
						OFFSET 0.0040 -0.1068 0.0006
					}
				}
			}
		}
		JOINT LeftShoulder
		{
			OFFSET 0.0119 0.2289 -0.1181
			CHANNELS 3 Zrotation Xrotation Yrotation
			JOINT LeftElbow
			{
				OFFSET 0.00 -0.1475 0.00
				CHANNELS 2 Zrotation Yrotation
				JOINT LeftWrist
				{
					OFFSET 0.00 -0.1605 0.00
					CHANNELS 2 Zrotation Xrotation
					End Site
					{
						OFFSET 0.0040 -0.1068 -0.0006
					}
				}
			}
		}
	}
	JOINT RightHip
	{
		OFFSET 0.0316 -0.0424 0.0458
		CHANNELS 3 Zrotation Xrotation Yrotation
		JOINT RightKnee
		{
			OFFSET 0.00 -0.2438 0.00
			CHANNELS 1 Zrotation
			JOINT RightAnkle
			{
				OFFSET 0.00 -0.2449 0.00
				CHANNELS 3 Zrotation Xrotation Yrotation
				End Site
				{
					OFFSET 0.1237 -0.0542 0.0051
				}
			}
		}
	}
	JOINT LeftHip
	{
		OFFSET 0.0316 -0.0424 -0.0458
		CHANNELS 3 Zrotation Xrotation Yrotation
		JOINT LeftKnee
		{
			OFFSET 0.00 -0.2438 0.00
			CHANNELS 1 Zrotation
			JOINT LeftAnkle
			{
				OFFSET 0.00 -0.2449 0.00
				CHANNELS 3 Zrotation Xrotation Yrotation
				End Site
				{
					OFFSET 0.1237 -0.0542 -0.0051
				}
			}
		}
	}
}
MOTION
Frames: 16
Frame Time: 0.02
0.00137 0.00022 0.00011 18.88857 -25.5554 -2.32875 49.38315 -0.53431 -3.1747 -10.79775 6.0152 -0.89595 -6.03023 -5.43594 -30.92496 14.31631 105.14811 11.19154 3.38071 -19.12396 6.94635 1.93158 29.68243 -145.19178 24.84393 -9.08663 39.68415 -3.42511 -1.49234 -21.25475 -6.95279 -3.75043 -4.07439 42.78208 3.37742 -1.29121 -25.96788 -7.0645 3.38031 3.88341
0.00146 0.00019 0.00015 18.93158 -25.58259 -2.33617 49.40676 -0.51833 -3.18004 -10.81 6.06066 -0.89672 -6.0265 -5.47935 -30.76237 14.3796 105.01385 11.18657 3.34706 -19.21387 7.26188 1.05626 29.82097 -140.39686 23.65383 -8.25701 39.67882 -3.50182 -1.94778 -21.24877 -6.92029 -3.7138 -4.05415 42.81551 3.5309 -0.68978 -25.99046 -7.03544 3.3162 3.85138
0.00155 0.00016 0.00019 18.97447 -25.60977 -2.34362 49.43022 -0.50237 -3.18537 -10.82224 6.10614 -0.8975 -6.0229 -5.52269 -30.59951 14.44302 104.87864 11.18157 3.31356 -19.30381 7.57634 0.18434 29.95953 -135.62094 22.4686 -7.43065 39.67362 -3.5784 -2.40234 -21.24287 -6.88786 -3.67723 -4.03394 42.84897 3.68406 -0.08962 -26.01306 -7.00644 3.25222 3.81942
0.00164 0.00014 0.00024 19.01735 -25.6369 -2.35103 49.45374 -0.48643 -3.19069 -10.83444 6.15148 -0.89827 -6.01919 -5.56599 -30.43728 14.50617 104.74454 11.1766 3.28003 -19.39349 7.89088 -0.68812 30.09773 -130.84178 21.28244 -6.60375 39.66834 -3.65489 -2.85648 -21.23691 -6.85546 -3.64069 -4.01376 42.88233 3.8371 0.51007 -26.03559 -6.97746 3.1883 3.78749
0.00172 0.00011 0.00028 19.06035 -25.66397 -2.35841 49.47744 -0.4705 -3.19604 -10.84667 6.19674 -0.89904 -6.0153 -5.60932 -30.27561 14.56906 104.61198 11.17168 3.24629 -19.48302 8.20654 -1.5644 30.23569 -126.04118 20.09076 -5.7732 39.66288 -3.73148 -3.31125 -21.23087 -6.823 -3.60411 -3.99355 42.91559 3.99039 1.11076 -26.05807 -6.94842 3.12428 3.7555
0.00181 8e-05 0.00032 19.103 -25.69139 -2.36599 49.50041 -0.45448 -3.20132 -10.85898 6.24268 -0.89981 -6.01233 -5.65268 -30.11029 14.63361 104.4713 11.1665 3.21331 -19.5738 8.51847 -2.42718 30.37545 -121.31693 18.91899 -4.95561 39.6582 -3.80801 -3.76531 -21.22526 -6.79064 -3.56757 -3.97337 42.94946 4.14325 1.70973 -26.08092 -6.9195 3.06039 3.72359
0.0019 6e-05 0.00036 19.1463 -25.71812 -2.37316 49.52482 -0.43863 -3.20672 -10.87101 6.2872 -0.90058 -6.00749 -5.69597 -29.95245 14.69474 104.34682 11.16183 3.17891 -19.662 8.83748 -3.31576 30.51158 -116.44681 17.70912 -4.11327 39.65201 -3.88459 -4.22043 -21.21877 -6.75811 -3.53098 -3.95315 42.98211 4.29685 2.31162 -26.10298 -6.89037 2.99629 3.69156
0.00199 3e-05 0.0004 19.18902 -25.74541 -2.3807 49.54789 -0.42266 -3.21205 -10.88347 6.33302 -0.90135 -6.00442 -5.73924 -29.78781 14.75902 104.20796 11.15674 3.14568 -19.75251 9.15014 -4.18127 30.65082 -111.70653 16.53317 -3.29297 39.64711 -3.96111 -4.67432 -21.21311 -6.72575 -3.49446 -3.93297 43.01579 4.44969 2.91063 -26.1258 -6.86144 2.93241 3.65965
0.00207 0 0.00044 19.23096 -25.77372 -2.38873 49.56935 -0.40641 -3.21711 -10.89577 6.38053 -0.90214 -6.00334 -5.78285 -29.61426 14.82725 104.04897 11.15093 3.11441 -19.84622 9.45441 -5.01593 30.79494 -107.14228 15.40324 -2.50251 39.64421 -4.03766 -5.128 -21.20843 -6.69353 -3.45791 -3.91278 43.05116 4.60198 3.5072 -26.14945 -6.83273 2.86866 3.62783
0.00218 -2e-05 0.0005 19.27718 -25.79716 -2.39406 49.60018 -0.39135 -3.22317 -10.90696 6.41859 -0.90285 -5.99028 -5.82562 -29.49013 14.87308 103.99809 11.14864 3.07349 -19.92267 9.80507 -6.02014 30.91422 -101.61726 14.02219 -1.54906 39.63109 -4.11436 -5.58678 -21.19799 -6.6603 -3.42117 -3.89249 43.07811 4.7586 4.12108 -26.16805 -6.80268 2.80376 3.59529
0.00223 -6e-05 0.0005 19.31451 -25.83025 -2.40503 49.61118 -0.37406 -3.22746 -10.92178 6.47641 -0.90374 -6.00285 -5.86943 -29.26302 14.96593 103.72422 11.13931 3.05188 -20.03475 10.05907 -6.67175 31.08377 -98.08592 13.16218 -0.93391 39.63868 -4.1905 -6.03223 -21.19978 -6.62933 -3.38506 -3.87254 43.12198 4.90534 4.69624 -26.19746 -6.7755 2.74153 3.5644
0.0021 -0.00014 0.00038 19.32647 -25.89531 -2.43205 49.56854 -0.34848 -3.22382 -10.9371 6.59062 -0.90513 -6.08368 -5.92225 -28.74013 15.19024 102.78898 11.10784 3.09227 -20.25187 10.03446 -6.30169 31.41021 -100.36475 13.82163 -1.30379 39.71064 -4.26769 -6.46389 -21.23489 -6.60349 -3.34861 -3.85232 43.21956 5.03064 5.18243 -26.25569 -6.75611 2.6848 3.53718
0.00192 -0.00024 0.0002 19.32991 -25.96908 -2.4646 49.50637 -0.32113 -3.21885 -10.95847 6.72425 -0.90672 -6.19077 -5.97509 -28.11663 15.46075 101.63826 11.07012 3.1504 -20.50328 9.91472 -5.58583 31.78342 -104.59036 14.98989 -2.0041 39.80189 -4.3442 -6.87908 -21.28242 -6.58006 -3.31308 -3.83262 43.33269 5.14482 5.62651 -26.3249 -6.73963 2.63111 3.51178
0.00178 -0.00033 4e-05 19.33765 -26.03526 -2.49429 49.45193 -0.29592 -3.21663 -10.98239 6.84763 -0.90824 -6.28703 -6.02369 -27.54734 15.70923 100.61936 11.0367 3.19451 -20.73442 9.84791 -5.06579 32.12312 -107.69364 15.86386 -2.51458 39.87951 -4.41888 -7.28551 -21.32431 -6.55631 -3.27859 -3.8135 43.43403 5.26057 6.07863 -26.38971 -6.7219 2.57724 3.48612
0.00158 -0.00044 -7e-05 19.34269 -26.11665 -2.52561 49.40007 -0.26483 -3.20582 -10.98123 6.97721 -0.90966 -6.37814 -6.08958 -26.94057 15.96444 99.45992 10.99584 3.26371 -20.98599 9.74218 -4.38907 32.51544 -111.77213 16.99582 -3.18806 39.97813 -4.50113 -7.75585 -21.36584 -6.52954 -3.2383 -3.79111 43.55566 5.39161 6.57767 -26.45226 -6.70393 2.51829 3.45809
0.00149 -0.00051 -0.00032 19.35241 -26.16861 -2.55464 49.34099 -0.24589 -3.21197 -11.03716 7.09827 -0.91134 -6.48687 -6.12017 -26.38983 16.21373 98.53838 10.97057 3.28498 -21.20244 9.69218 -3.94763 32.80823 -114.32076 17.72264 -3.60675 40.03706 -4.56928 -8.09499 -21.41154 -6.50932 -3.20985 -3.77544 43.63832 5.48743 6.96883 -26.52185 -6.68707 2.47065 3.43542
